<svg xmlns="http://www.w3.org/2000/svg" width="2600" height="1800" viewBox="0 0 2600 1800" role="img" aria-labelledby="title desc">
  <title id="title">&#x8CC7;&#x6599;&#x6D41;&#x5716;</title>
  <desc id="desc">&#x5177;&#x9AD4;&#x6A19;&#x51FA; hooks&#x3001;API Route&#x3001;local JSON fallback&#x3001;scraping pipeline&#x3001;CI/CD&#x3001;loading/error/fallback strategy</desc>
  <defs>
    <marker id="arrow" markerWidth="16" markerHeight="16" refX="13" refY="6" orient="auto" markerUnits="strokeWidth">
      <path d="M2,2 L13,6 L2,10 Z" fill="#334155" />
    </marker>
    <marker id="arrow-green" markerWidth="16" markerHeight="16" refX="13" refY="6" orient="auto" markerUnits="strokeWidth">
      <path d="M2,2 L13,6 L2,10 Z" fill="#15803d" />
    </marker>
    <style>
      .bg { fill: #f8fafc; }
      .title { fill: #0f172a; font: 700 54px Arial, sans-serif; }
      .subtitle { fill: #475569; font: 400 24px Arial, sans-serif; }
      .lane { fill: #ffffff; stroke: #cbd5e1; stroke-width: 3; rx: 24; }
      .lane-title { fill: #0f172a; font: 700 30px Arial, sans-serif; }
      .node { stroke: #334155; stroke-width: 3; rx: 18; }
      .source { fill: #e2e8f0; }
      .api { fill: #fee2e2; }
      .route { fill: #e0f2fe; }
      .hook { fill: #dcfce7; }
      .domain { fill: #fef3c7; }
      .ui { fill: #ede9fe; }
      .external { fill: #f1f5f9; stroke-dasharray: 10 8; }
      .automation { fill: #dcfce7; stroke: #15803d; }
      .node-title { fill: #0f172a; font: 700 25px Arial, sans-serif; }
      .node-text { fill: #475569; font: 400 19px Arial, sans-serif; }
      .edge { fill: none; stroke: #334155; stroke-width: 4; marker-end: url(#arrow); }
      .edge-soft { fill: none; stroke: #64748b; stroke-width: 3.5; marker-end: url(#arrow); }
      .edge-green { fill: none; stroke: #15803d; stroke-width: 4; marker-end: url(#arrow-green); }
      .edge-label { fill: #334155; font: 700 18px Arial, sans-serif; }
      .green-label { fill: #15803d; font: 700 18px Arial, sans-serif; }
      .legend-title { fill: #0f172a; font: 700 24px Arial, sans-serif; }
      .legend-text { fill: #475569; font: 400 18px Arial, sans-serif; }
    </style>
  </defs>

  <rect class="bg" width="2600" height="1800" />
  <text class="title" x="90" y="95">&#x8CC7;&#x6599;&#x6D41;&#x5716;</text>
  <text class="subtitle" x="92" y="135">&#x5177;&#x9AD4;&#x6A19;&#x51FA; hooks&#x3001;API Route&#x3001;local JSON fallback&#x3001;scraping pipeline&#x3001;CI/CD&#x3001;loading/error/fallback strategy</text>

  <rect class="lane" x="70" y="200" width="2460" height="585" />
  <text class="lane-title" x="110" y="252">&#x8CFD;&#x7A0B;&#x8CC7;&#x6599;&#x6D41;</text>

  <rect class="node source" x="115" y="335" width="300" height="145" />
  <text class="node-title" x="145" y="385">&#x672C;&#x5730; JSON</text>
  <text class="node-text" x="145" y="422">data/*.json</text>
  <text class="node-text" x="145" y="450">PLG / BCL / TPBL fallback</text>

  <rect class="node external" x="115" y="575" width="300" height="120" />
  <text class="node-title" x="145" y="625">&#x5916;&#x90E8; TPBL API</text>
  <text class="node-text" x="145" y="662">TPBL_API_URL</text>

  <rect class="node route" x="530" y="575" width="330" height="120" />
  <text class="node-title" x="560" y="625">Next.js API Route</text>
  <text class="node-text" x="560" y="662">&#x9650;&#x6D41; / timeout / cache header</text>

  <rect class="node hook" x="985" y="450" width="340" height="150" />
  <text class="node-title" x="1015" y="500">useLeagueData</text>
  <text class="node-text" x="1015" y="537">&#x5F59;&#x6574;&#x4E09;&#x500B;&#x806F;&#x76DF;&#x8CC7;&#x6599;</text>
  <text class="node-text" x="1015" y="565">usePlg / useTpbl / useBcl</text>

  <rect class="node domain" x="1450" y="450" width="330" height="150" />
  <text class="node-title" x="1480" y="500">domain/mappers</text>
  <text class="node-text" x="1480" y="537">&#x7D71;&#x4E00;&#x8CC7;&#x6599;&#x683C;&#x5F0F;</text>
  <text class="node-text" x="1480" y="565">PLG / TPBL / BCL mapper</text>

  <rect class="node hook" x="1905" y="335" width="330" height="145" />
  <text class="node-title" x="1935" y="385">useLeagueSchedules</text>
  <text class="node-text" x="1935" y="422">&#x4F9D;&#x806F;&#x76DF;&#x5EFA;&#x7ACB; schedule state</text>
  <text class="node-text" x="1935" y="450">PLG / TPBL / BCL</text>

  <rect class="node hook" x="1905" y="575" width="330" height="145" />
  <text class="node-title" x="1935" y="625">useSchedule</text>
  <text class="node-text" x="1935" y="662">&#x5206;&#x9801; / &#x6708;&#x4EFD; / &#x7403;&#x968A;</text>
  <text class="node-text" x="1935" y="690">&#x5B8C;&#x8CFD;&#x5224;&#x65B7;</text>

  <rect class="node ui" x="2295" y="450" width="185" height="150" />
  <text class="node-title" x="2323" y="500">Schedule UI</text>
  <text class="node-text" x="2323" y="537">PLG / TPBL</text>
  <text class="node-text" x="2323" y="565">BCL &#x5340;&#x584A;</text>

  <rect class="node domain" x="985" y="640" width="1250" height="100" />
  <text class="node-title" x="1015" y="680">fallback strategy</text>
  <text class="node-text" x="1015" y="713">TPBL &#x5148;&#x986F;&#x793A;&#x672C;&#x5730; fallback&#xFF1B;API &#x6210;&#x529F;&#x5F8C;&#x66F4;&#x65B0;&#xFF1B;</text>
  <text class="node-text" x="1015" y="735">&#x5931;&#x6557;&#x5C31;&#x4FDD;&#x7559; fallback</text>

  <path class="edge" d="M415 407 L985 407 L985 515" />
  <path class="edge" d="M415 635 L530 635" />
  <path class="edge" d="M860 635 L985 635 L985 545" />
  <path class="edge" d="M1325 525 L1450 525" />
  <path class="edge" d="M1780 525 L1905 407" />
  <path class="edge" d="M2070 480 L2070 575" />
  <path class="edge" d="M2235 647 L2295 525" />

  <rect class="lane" x="70" y="855" width="1185" height="420" />
  <text class="lane-title" x="110" y="907">&#x767B;&#x5165;&#x8207;&#x6536;&#x85CF;&#x8CC7;&#x6599;&#x6D41;</text>

  <rect class="node external" x="115" y="990" width="260" height="110" />
  <text class="node-title" x="145" y="1040">Google OAuth token</text>

  <rect class="node api" x="470" y="990" width="260" height="110" />
  <text class="node-title" x="500" y="1040">lib/api/auth</text>

  <rect class="node external" x="825" y="990" width="260" height="110" />
  <text class="node-title" x="855" y="1040">&#x5F8C;&#x7AEF; API</text>

  <rect class="node route" x="470" y="1140" width="260" height="110" />
  <text class="node-title" x="500" y="1190">AuthProvider</text>
  <text class="node-text" x="500" y="1220">accessToken / user</text>

  <rect class="node hook" x="825" y="1140" width="340" height="125" />
  <text class="node-title" x="855" y="1190">useFavoriteTeams</text>
  <text class="node-text" x="855" y="1220">loading / error</text>
  <text class="node-text" x="855" y="1245">optimistic update</text>

  <rect class="node ui" x="115" y="1140" width="260" height="110" />
  <text class="node-title" x="145" y="1190">my-teams UI</text>
  <text class="node-text" x="145" y="1220">&#x6536;&#x85CF;&#x7403;&#x968A;&#x683C;&#x72C0;&#x756B;&#x9762;</text>

  <path class="edge-soft" d="M375 1045 L470 1045" />
  <path class="edge-soft" d="M730 1045 L825 1045" />
  <path class="edge-soft" d="M955 1100 L955 1140" />
  <path class="edge-soft" d="M825 1195 L730 1195" />
  <path class="edge-soft" d="M470 1195 L375 1195" />

  <rect class="lane" x="1345" y="855" width="1185" height="420" />
  <text class="lane-title" x="1385" y="907">&#x901A;&#x77E5;&#x8CC7;&#x6599;&#x6D41;</text>

  <rect class="node hook" x="1390" y="990" width="330" height="120" />
  <text class="node-title" x="1420" y="1040">useTeamNotifications</text>
  <text class="node-text" x="1420" y="1077">&#x6536;&#x85CF;&#x7403;&#x968A; + &#x5DF2;&#x8B80; key</text>

  <rect class="node api" x="1810" y="990" width="260" height="120" />
  <text class="node-title" x="1840" y="1040">notification API</text>
  <text class="node-text" x="1840" y="1077">read keys</text>

  <rect class="node domain" x="2160" y="990" width="300" height="120" />
  <text class="node-title" x="2190" y="1040">domain/teams</text>
  <text class="node-text" x="2190" y="1077">&#x8A08;&#x7B97;&#x4E00;&#x9031;&#x5167;&#x8CFD;&#x7A0B;</text>

  <rect class="node ui" x="1810" y="1145" width="330" height="125" />
  <text class="node-title" x="1840" y="1195">Notification menu</text>
  <text class="node-text" x="1840" y="1225">loading / error</text>
  <text class="node-text" x="1840" y="1250">unread count</text>

  <path class="edge-soft" d="M1720 1050 L1810 1050" />
  <path class="edge-soft" d="M2070 1050 L2160 1050" />
  <path class="edge-soft" d="M2310 990 L2310 810 L2070 810 L2070 720" />
  <path class="edge-soft" d="M1960 1110 L1960 1145" />

  <rect class="lane" x="70" y="1345" width="2460" height="300" />
  <text class="lane-title" x="110" y="1397">&#x9A57;&#x8B49;&#x8207;&#x54C1;&#x8CEA;&#x6D41;&#x7A0B;</text>

  <rect class="node automation" x="115" y="1470" width="300" height="105" />
  <text class="node-title" x="145" y="1515">plg-scraper.yml</text>
  <text class="node-text" x="145" y="1545">GitHub Actions &#x6BCF;&#x5C0F;&#x6642;&#x57F7;&#x884C;</text>

  <rect class="node automation" x="505" y="1470" width="300" height="105" />
  <text class="node-title" x="535" y="1515">npm run scrape:plg</text>
  <text class="node-text" x="535" y="1545">scrape-plg-schedule.ts</text>

  <rect class="node automation" x="895" y="1470" width="300" height="105" />
  <text class="node-title" x="925" y="1515">Commit data/ JSON</text>
  <text class="node-text" x="925" y="1545">&#x89F8;&#x767C;&#x90E8;&#x7F72; / Vercel</text>

  <rect class="node automation" x="1375" y="1470" width="300" height="105" />
  <text class="node-title" x="1405" y="1515">test.yml</text>
  <text class="node-text" x="1405" y="1545">Pull Request / push main</text>

  <rect class="node automation" x="1765" y="1470" width="300" height="105" />
  <text class="node-title" x="1795" y="1515">Jest + Playwright</text>
  <text class="node-text" x="1795" y="1545">unit / E2E tests</text>

  <rect class="node automation" x="2155" y="1470" width="300" height="105" />
  <text class="node-title" x="2185" y="1515">next build</text>
  <text class="node-text" x="2185" y="1545">&#x90E8;&#x7F72;&#x524D;&#x9A57;&#x8B49;</text>

  <path class="edge-green" d="M415 1522 L505 1522" />
  <path class="edge-green" d="M805 1522 L895 1522" />
  <path class="edge-green" d="M1195 1522 L1375 1522" />
  <path class="edge-green" d="M1675 1522 L1765 1522" />
  <path class="edge-green" d="M2065 1522 L2155 1522" />

  <rect class="lane" x="70" y="1680" width="2460" height="90" />
  <text class="legend-title" x="105" y="1733">&#x5716;&#x4F8B;</text>
  <text class="legend-text" x="205" y="1718">&#x6DF1;&#x8272;&#x7DDA;&#xFF1A;&#x4E3B;&#x8981;&#x8CFD;&#x7A0B;&#x8CC7;&#x6599;&#x6D41;&#x3002;&#x7070;&#x8272;&#x7DDA;&#xFF1A;&#x767B;&#x5165;&#x3001;&#x6536;&#x85CF;&#x3001;&#x901A;&#x77E5;&#x8CC7;&#x6599;&#x6D41;&#x3002;</text>
  <text class="legend-text" x="205" y="1748">&#x7DA0;&#x8272;&#x7DDA;&#xFF1A;&#x81EA;&#x52D5;&#x5316;&#x8CC7;&#x6599;&#x66F4;&#x65B0;&#x8207; CI/CD&#x3002;</text>
</svg>
